<?xml version="1.0" encoding="UTF-8"?>
<svg xmlns="http://www.w3.org/2000/svg" viewBox="0 0 256 256" width="256" height="256" role="img" aria-label="PKMDS logo">
<defs><linearGradient id="pri" x1="0" y1="0" x2="1" y2="1"><stop offset="0" stop-color="#1E40AF"></stop><stop offset="1" stop-color="#1E40AF" stop-opacity="0.82"></stop></linearGradient></defs>
<rect width="256" height="256" fill="#FFFFFF"></rect>
<g transform="translate(128 128) scale(0.8) translate(-128 -128)"><rect x="39.50" y="18.00" width="40.00" height="40.00" rx="8.80" fill="#1C1917" opacity="0.10"></rect><rect x="39.00" y="16.00" width="40.00" height="40.00" rx="8.80" fill="url(#pri)"></rect><rect x="39.00" y="16.00" width="40.00" height="16.00" rx="8.80" fill="white" opacity="0.12"></rect><rect x="85.50" y="18.00" width="40.00" height="40.00" rx="8.80" fill="#1C1917" opacity="0.10"></rect><rect x="85.00" y="16.00" width="40.00" height="40.00" rx="8.80" fill="url(#pri)"></rect><rect x="85.00" y="16.00" width="40.00" height="16.00" rx="8.80" fill="white" opacity="0.12"></rect><rect x="131.50" y="18.00" width="40.00" height="40.00" rx="8.80" fill="#1C1917" opacity="0.10"></rect><rect x="131.00" y="16.00" width="40.00" height="40.00" rx="8.80" fill="url(#pri)"></rect><rect x="131.00" y="16.00" width="40.00" height="16.00" rx="8.80" fill="white" opacity="0.12"></rect><rect x="39.50" y="64.00" width="40.00" height="40.00" rx="8.80" fill="#1C1917" opacity="0.10"></rect><rect x="39.00" y="62.00" width="40.00" height="40.00" rx="8.80" fill="url(#pri)"></rect><rect x="39.00" y="62.00" width="40.00" height="16.00" rx="8.80" fill="white" opacity="0.12"></rect><rect x="131.50" y="64.00" width="40.00" height="40.00" rx="8.80" fill="#1C1917" opacity="0.10"></rect><rect x="131.00" y="62.00" width="40.00" height="40.00" rx="8.80" fill="#7C3AED"></rect><rect x="131.00" y="62.00" width="40.00" height="16.00" rx="8.80" fill="white" opacity="0.12"></rect><rect x="39.50" y="110.00" width="40.00" height="40.00" rx="8.80" fill="#1C1917" opacity="0.10"></rect><rect x="39.00" y="108.00" width="40.00" height="40.00" rx="8.80" fill="url(#pri)"></rect><rect x="39.00" y="108.00" width="40.00" height="16.00" rx="8.80" fill="white" opacity="0.12"></rect><rect x="85.50" y="110.00" width="40.00" height="40.00" rx="8.80" fill="#1C1917" opacity="0.10"></rect><rect x="85.00" y="108.00" width="40.00" height="40.00" rx="8.80" fill="url(#pri)"></rect><rect x="85.00" y="108.00" width="40.00" height="16.00" rx="8.80" fill="white" opacity="0.12"></rect><rect x="131.50" y="110.00" width="40.00" height="40.00" rx="8.80" fill="#1C1917" opacity="0.10"></rect><rect x="131.00" y="108.00" width="40.00" height="40.00" rx="8.80" fill="url(#pri)"></rect><rect x="131.00" y="108.00" width="40.00" height="16.00" rx="8.80" fill="white" opacity="0.12"></rect><rect x="39.50" y="156.00" width="40.00" height="40.00" rx="8.80" fill="#1C1917" opacity="0.10"></rect><rect x="39.00" y="154.00" width="40.00" height="40.00" rx="8.80" fill="url(#pri)"></rect><rect x="39.00" y="154.00" width="40.00" height="16.00" rx="8.80" fill="white" opacity="0.12"></rect><rect x="39.50" y="202.00" width="40.00" height="40.00" rx="8.80" fill="#1C1917" opacity="0.10"></rect><rect x="39.00" y="200.00" width="40.00" height="40.00" rx="8.80" fill="url(#pri)"></rect><rect x="39.00" y="200.00" width="40.00" height="16.00" rx="8.80" fill="white" opacity="0.12"></rect><rect x="177.50" y="202.00" width="40.00" height="40.00" rx="8.80" fill="#1C1917" opacity="0.10"></rect><rect x="177.00" y="200.00" width="40.00" height="40.00" rx="8.80" fill="#16A34A"></rect><rect x="177.00" y="200.00" width="40.00" height="16.00" rx="8.80" fill="white" opacity="0.12"></rect></g>
</svg>