<?xml version="1.0" encoding="UTF-8"?>
<svg xmlns="http://www.w3.org/2000/svg" viewBox="0 0 256 256" width="256" height="256" role="img" aria-label="PKMDS logo">
  <defs>
    <style>
      :root {
        --c-primary: #1E40AF;
        --c-secondary: #16A34A;
        --c-tertiary: #7C3AED;
        --c-shadow: #1C1917;
      }
      @media (prefers-color-scheme: dark) {
        :root {
          --c-primary: #60A5FA;
          --c-secondary: #4ADE80;
          --c-tertiary: #A78BFA;
          --c-shadow: #FAFAF9;
        }
      }
    </style>
  </defs>
  <rect x="39.50" y="18.00" width="40.00" height="40.00" rx="8.80" fill="var(--c-shadow)" opacity="0.10"></rect><rect x="39.00" y="16.00" width="40.00" height="40.00" rx="8.80" fill="var(--c-primary)"></rect><rect x="39.00" y="16.00" width="40.00" height="16.00" rx="8.80" fill="white" opacity="0.12"></rect><rect x="85.50" y="18.00" width="40.00" height="40.00" rx="8.80" fill="var(--c-shadow)" opacity="0.10"></rect><rect x="85.00" y="16.00" width="40.00" height="40.00" rx="8.80" fill="var(--c-primary)"></rect><rect x="85.00" y="16.00" width="40.00" height="16.00" rx="8.80" fill="white" opacity="0.12"></rect><rect x="131.50" y="18.00" width="40.00" height="40.00" rx="8.80" fill="var(--c-shadow)" opacity="0.10"></rect><rect x="131.00" y="16.00" width="40.00" height="40.00" rx="8.80" fill="var(--c-primary)"></rect><rect x="131.00" y="16.00" width="40.00" height="16.00" rx="8.80" fill="white" opacity="0.12"></rect><rect x="39.50" y="64.00" width="40.00" height="40.00" rx="8.80" fill="var(--c-shadow)" opacity="0.10"></rect><rect x="39.00" y="62.00" width="40.00" height="40.00" rx="8.80" fill="var(--c-primary)"></rect><rect x="39.00" y="62.00" width="40.00" height="16.00" rx="8.80" fill="white" opacity="0.12"></rect><rect x="131.50" y="64.00" width="40.00" height="40.00" rx="8.80" fill="var(--c-shadow)" opacity="0.10"></rect><rect x="131.00" y="62.00" width="40.00" height="40.00" rx="8.80" fill="var(--c-tertiary)"></rect><rect x="131.00" y="62.00" width="40.00" height="16.00" rx="8.80" fill="white" opacity="0.12"></rect><rect x="39.50" y="110.00" width="40.00" height="40.00" rx="8.80" fill="var(--c-shadow)" opacity="0.10"></rect><rect x="39.00" y="108.00" width="40.00" height="40.00" rx="8.80" fill="var(--c-primary)"></rect><rect x="39.00" y="108.00" width="40.00" height="16.00" rx="8.80" fill="white" opacity="0.12"></rect><rect x="85.50" y="110.00" width="40.00" height="40.00" rx="8.80" fill="var(--c-shadow)" opacity="0.10"></rect><rect x="85.00" y="108.00" width="40.00" height="40.00" rx="8.80" fill="var(--c-primary)"></rect><rect x="85.00" y="108.00" width="40.00" height="16.00" rx="8.80" fill="white" opacity="0.12"></rect><rect x="131.50" y="110.00" width="40.00" height="40.00" rx="8.80" fill="var(--c-shadow)" opacity="0.10"></rect><rect x="131.00" y="108.00" width="40.00" height="40.00" rx="8.80" fill="var(--c-primary)"></rect><rect x="131.00" y="108.00" width="40.00" height="16.00" rx="8.80" fill="white" opacity="0.12"></rect><rect x="39.50" y="156.00" width="40.00" height="40.00" rx="8.80" fill="var(--c-shadow)" opacity="0.10"></rect><rect x="39.00" y="154.00" width="40.00" height="40.00" rx="8.80" fill="var(--c-primary)"></rect><rect x="39.00" y="154.00" width="40.00" height="16.00" rx="8.80" fill="white" opacity="0.12"></rect><rect x="39.50" y="202.00" width="40.00" height="40.00" rx="8.80" fill="var(--c-shadow)" opacity="0.10"></rect><rect x="39.00" y="200.00" width="40.00" height="40.00" rx="8.80" fill="var(--c-primary)"></rect><rect x="39.00" y="200.00" width="40.00" height="16.00" rx="8.80" fill="white" opacity="0.12"></rect><rect x="177.50" y="202.00" width="40.00" height="40.00" rx="8.80" fill="var(--c-shadow)" opacity="0.10"></rect><rect x="177.00" y="200.00" width="40.00" height="40.00" rx="8.80" fill="var(--c-secondary)"></rect><rect x="177.00" y="200.00" width="40.00" height="16.00" rx="8.80" fill="white" opacity="0.12"></rect>
</svg>