<?xml version="1.0" encoding="UTF-8"?>
<svg xmlns="http://www.w3.org/2000/svg" viewBox="0 0 1280 360" width="1280" height="360" role="img" aria-label="PKMDS — Pokémon Save Editor"><defs><linearGradient id="bg" x1="0" y1="0" x2="1" y2="1"><stop offset="0" stop-color="#F5F5F4"></stop><stop offset="1" stop-color="#FFFFFF"></stop></linearGradient></defs><rect width="1280" height="360" fill="url(#bg)"></rect><rect x="8" y="8" width="1264" height="344" rx="20" fill="none" stroke="#E7E5E4" stroke-width="1"></rect><g transform="translate(64 84)"><rect width="192" height="192" rx="43.2" fill="#FFFFFF"></rect><g transform="scale(0.75)"><defs><linearGradient id="pri-banner" x1="0" y1="0" x2="1" y2="1"><stop offset="0" stop-color="#1E40AF"></stop><stop offset="1" stop-color="#1E40AF" stop-opacity="0.82"></stop></linearGradient></defs><rect x="39.50" y="18.00" width="40.00" height="40.00" rx="8.80" fill="#1C1917" opacity="0.10"></rect><rect x="39.00" y="16.00" width="40.00" height="40.00" rx="8.80" fill="url(#pri-banner)"></rect><rect x="39.00" y="16.00" width="40.00" height="16.00" rx="8.80" fill="white" opacity="0.12"></rect><rect x="85.50" y="18.00" width="40.00" height="40.00" rx="8.80" fill="#1C1917" opacity="0.10"></rect><rect x="85.00" y="16.00" width="40.00" height="40.00" rx="8.80" fill="url(#pri-banner)"></rect><rect x="85.00" y="16.00" width="40.00" height="16.00" rx="8.80" fill="white" opacity="0.12"></rect><rect x="131.50" y="18.00" width="40.00" height="40.00" rx="8.80" fill="#1C1917" opacity="0.10"></rect><rect x="131.00" y="16.00" width="40.00" height="40.00" rx="8.80" fill="url(#pri-banner)"></rect><rect x="131.00" y="16.00" width="40.00" height="16.00" rx="8.80" fill="white" opacity="0.12"></rect><rect x="39.50" y="64.00" width="40.00" height="40.00" rx="8.80" fill="#1C1917" opacity="0.10"></rect><rect x="39.00" y="62.00" width="40.00" height="40.00" rx="8.80" fill="url(#pri-banner)"></rect><rect x="39.00" y="62.00" width="40.00" height="16.00" rx="8.80" fill="white" opacity="0.12"></rect><rect x="131.50" y="64.00" width="40.00" height="40.00" rx="8.80" fill="#1C1917" opacity="0.10"></rect><rect x="131.00" y="62.00" width="40.00" height="40.00" rx="8.80" fill="#7C3AED"></rect><rect x="131.00" y="62.00" width="40.00" height="16.00" rx="8.80" fill="white" opacity="0.12"></rect><rect x="39.50" y="110.00" width="40.00" height="40.00" rx="8.80" fill="#1C1917" opacity="0.10"></rect><rect x="39.00" y="108.00" width="40.00" height="40.00" rx="8.80" fill="url(#pri-banner)"></rect><rect x="39.00" y="108.00" width="40.00" height="16.00" rx="8.80" fill="white" opacity="0.12"></rect><rect x="85.50" y="110.00" width="40.00" height="40.00" rx="8.80" fill="#1C1917" opacity="0.10"></rect><rect x="85.00" y="108.00" width="40.00" height="40.00" rx="8.80" fill="url(#pri-banner)"></rect><rect x="85.00" y="108.00" width="40.00" height="16.00" rx="8.80" fill="white" opacity="0.12"></rect><rect x="131.50" y="110.00" width="40.00" height="40.00" rx="8.80" fill="#1C1917" opacity="0.10"></rect><rect x="131.00" y="108.00" width="40.00" height="40.00" rx="8.80" fill="url(#pri-banner)"></rect><rect x="131.00" y="108.00" width="40.00" height="16.00" rx="8.80" fill="white" opacity="0.12"></rect><rect x="39.50" y="156.00" width="40.00" height="40.00" rx="8.80" fill="#1C1917" opacity="0.10"></rect><rect x="39.00" y="154.00" width="40.00" height="40.00" rx="8.80" fill="url(#pri-banner)"></rect><rect x="39.00" y="154.00" width="40.00" height="16.00" rx="8.80" fill="white" opacity="0.12"></rect><rect x="39.50" y="202.00" width="40.00" height="40.00" rx="8.80" fill="#1C1917" opacity="0.10"></rect><rect x="39.00" y="200.00" width="40.00" height="40.00" rx="8.80" fill="url(#pri-banner)"></rect><rect x="39.00" y="200.00" width="40.00" height="16.00" rx="8.80" fill="white" opacity="0.12"></rect><rect x="177.50" y="202.00" width="40.00" height="40.00" rx="8.80" fill="#1C1917" opacity="0.10"></rect><rect x="177.00" y="200.00" width="40.00" height="40.00" rx="8.80" fill="#16A34A"></rect><rect x="177.00" y="200.00" width="40.00" height="16.00" rx="8.80" fill="white" opacity="0.12"></rect></g></g><g font-family="&#39;Inter&#39;,&#39;Helvetica Neue&#39;,&#39;Helvetica&#39;,Arial,sans-serif" font-weight="800" letter-spacing="-3"><text x="292" y="162" font-size="92" fill="#1C1917">PKM<tspan fill="#1E40AF">DS</tspan></text><text x="292" y="210" font-size="20" fill="#57534E" font-weight="500" letter-spacing="0.5">Pokémon save editor for the web</text></g></svg>